# xmcd CD database file
#
# Track frame offsets:
#	150
#	17281
#	32220
#	44697
#	63606
#	79339
#	94982
#	109955
#	135716
#	147720
#	161389
#	176381
#	196603
#	216488
#	230030
#	249992
#
# Disc length: 3575 seconds
#
# Revision: 0
# Processed by: cddbd v1.4PL0 Copyright (c) Steve Scherf et al.
# Submitted via: CDex 1.50
#
DISCID=e80df510
DTITLE=Lada Kerndl+Tereza+B.B. F.Slovacka - Love Songs
DYEAR=2002
DGENRE=Jazz
TTITLE0=Unchained melody
TTITLE1=Hey Wont't you play
TTITLE2=Strangers in the night
TTITLE3=Lately
TTITLE4=I've got you under my skin
TTITLE5=Smile
TTITLE6=The wind beneath my wings
TTITLE7=Girl in a sport car
TTITLE8=Autumn leaves
TTITLE9=I'ts impossible
TTITLE10=Hey baba be rob
TTITLE11=I remember you
TTITLE12=Feelings
TTITLE13=O'l man river
TTITLE14=Every time we say goodbye
TTITLE15=Yesterday when i was young
EXTD=YEAR: 2002
EXTT0=
EXTT1=
EXTT2=
EXTT3=
EXTT4=
EXTT5=
EXTT6=
EXTT7=
EXTT8=
EXTT9=
EXTT10=
EXTT11=
EXTT12=
EXTT13=
EXTT14=
EXTT15=
PLAYORDER=
